<?xml version="1.0" encoding="UTF-8" standalone="no"?>
<!DOCTYPE svg PUBLIC "-//W3C//DTD SVG 1.1//EN" "http://www.w3.org/Graphics/SVG/1.1/DTD/svg11.dtd">
<svg version="1.1" xmlns="http://www.w3.org/2000/svg" xmlns:xlink="http://www.w3.org/1999/xlink" preserveAspectRatio="xMidYMid meet" viewBox="0 0 640 640" width="640" height="640"><defs><path d="M470 320C470 402.79 402.79 470 320 470C237.21 470 170 402.79 170 320C170 237.21 237.21 170 320 170C402.79 170 470 237.21 470 320Z" id="cluv5is58"></path><path d="M443.88 317.11C443.88 386.1 387.87 442.11 318.88 442.11C249.89 442.11 193.88 386.1 193.88 317.11C193.88 248.12 249.89 192.11 318.88 192.11C387.87 192.11 443.88 248.12 443.88 317.11Z" id="gpY7ReP3m"></path><path d="M357.5 320C357.5 340.7 340.7 357.5 320 357.5C299.3 357.5 282.5 340.7 282.5 320C282.5 299.3 299.3 282.5 320 282.5C340.7 282.5 357.5 299.3 357.5 320Z" id="d12meA7LjY"></path><path d="M335.59 320C335.59 328.28 328.87 335 320.59 335C312.31 335 305.59 328.28 305.59 320C305.59 311.72 312.31 305 320.59 305C328.87 305 335.59 311.72 335.59 320Z" id="b4mIhnDzRW"></path><path d="M398.83 242.32L348.44 291.98L320 320" id="ax2XHM6CZ"></path><path d="M320 320L297.74 298.16L268.4 269.37" id="b1f2CZCFaA"></path><path d="M320 246.22L353.25 279.46L320 312.71L286.75 279.46L320 246.22Z" id="c1JsxqCuAy"></path></defs><g><g><g><use xlink:href="#cluv5is58" opacity="1" fill="#6f6f6f" fill-opacity="1"></use><g><use xlink:href="#cluv5is58" opacity="1" fill-opacity="0" stroke="#000000" stroke-width="1" stroke-opacity="1"></use></g><g><use xlink:href="#cluv5is58" opacity="1" fill-opacity="0" stroke="#000000" stroke-width="1" stroke-opacity="1"></use></g></g><g><use xlink:href="#gpY7ReP3m" opacity="1" fill="#6f6f6f" fill-opacity="1"></use></g><g><use xlink:href="#d12meA7LjY" opacity="1" fill="#ff0000" fill-opacity="1"></use><g><use xlink:href="#d12meA7LjY" opacity="1" fill-opacity="0" stroke="#650a0a" stroke-width="2" stroke-opacity="1"></use></g></g><g><use xlink:href="#b4mIhnDzRW" opacity="1" fill="#000000" fill-opacity="1"></use></g><g><use xlink:href="#ax2XHM6CZ" opacity="1" fill="#000000" fill-opacity="1"></use><g><use xlink:href="#ax2XHM6CZ" opacity="1" fill-opacity="0" stroke="#000000" stroke-width="10" stroke-opacity="1"></use></g></g><g><g><filter id="shadow10677069" x="259.4" y="260.37" width="70.6" height="69.63" filterUnits="userSpaceOnUse" primitiveUnits="userSpaceOnUse"><feFlood></feFlood><feComposite in2="SourceAlpha" operator="in"></feComposite><feGaussianBlur stdDeviation="1"></feGaussianBlur><feOffset dx="1" dy="1" result="afterOffset"></feOffset><feFlood flood-color="#373636" flood-opacity="0.5"></feFlood><feComposite in2="afterOffset" operator="in"></feComposite><feMorphology operator="dilate" radius="1"></feMorphology><feComposite in2="SourceAlpha" operator="out"></feComposite></filter><path d="M320 320L297.74 298.16L268.4 269.37" id="jVCo5hRkI" fill="none" stroke="white" filter="url(#shadow10677069)"></path></g><g><use xlink:href="#b1f2CZCFaA" opacity="1" fill-opacity="0" stroke="#000000" stroke-width="10" stroke-opacity="1"></use></g></g><g><use xlink:href="#c1JsxqCuAy" opacity="1" fill="#6f6f6f" fill-opacity="1"></use><g><use xlink:href="#c1JsxqCuAy" opacity="1" fill-opacity="0" stroke="#6f6f6f" stroke-width="1" stroke-opacity="1"></use></g></g></g></g></svg>