<?xml version="1.0" encoding="UTF-8" standalone="no"?>
<!DOCTYPE svg PUBLIC "-//W3C//DTD SVG 1.1//EN" "http://www.w3.org/Graphics/SVG/1.1/DTD/svg11.dtd">
<svg version="1.1" xmlns="http://www.w3.org/2000/svg" xmlns:xlink="http://www.w3.org/1999/xlink" preserveAspectRatio="xMidYMid meet" viewBox="0 0 640 640" width="640" height="640"><defs><path d="M440 320C440 386.23 386.23 440 320 440C253.77 440 200 386.23 200 320C200 253.77 253.77 200 320 200C386.23 200 440 253.77 440 320Z" id="aieSvxIm2"></path><path d="M357.5 320C357.5 340.7 340.7 357.5 320 357.5C299.3 357.5 282.5 340.7 282.5 320C282.5 299.3 299.3 282.5 320 282.5C340.7 282.5 357.5 299.3 357.5 320Z" id="bJ3eXJP2Q"></path><path d="M320 246.22L353.25 279.46L320 312.71L286.75 279.46L320 246.22Z" id="d47r0BgTq"></path><path d="M335.59 320C335.59 328.28 328.87 335 320.59 335C312.31 335 305.59 328.28 305.59 320C305.59 311.72 312.31 305 320.59 305C328.87 305 335.59 311.72 335.59 320Z" id="d2gVL34cvd"></path><path d="M343.1 170.03L343.39 170.07L343.67 170.12L343.94 170.19L344.21 170.27L344.46 170.37L344.71 170.48L344.95 170.6L345.18 170.74L345.41 170.89L345.63 171.05L345.84 171.22L346.05 171.41L346.25 171.6L346.44 171.81L346.63 172.03L346.82 172.26L347 172.5L347.17 172.75L347.34 173.01L347.51 173.28L347.67 173.55L347.83 173.84L347.98 174.13L348.13 174.44L348.28 174.75L348.42 175.07L348.56 175.39L348.7 175.73L348.84 176.07L348.97 176.41L349.1 176.77L349.24 177.12L349.37 177.49L349.49 177.86L349.62 178.23L349.75 178.61L349.87 178.99L350 179.38L356.49 203.71L358.52 204.34L363.02 205.94L367.44 207.7L371.77 209.63L376.01 211.73L376.36 211.92L398.22 199.26L398.59 199.08L398.95 198.9L399.3 198.72L399.66 198.54L400.01 198.37L400.36 198.21L400.7 198.05L401.04 197.89L401.38 197.74L401.72 197.6L402.05 197.46L402.39 197.33L402.71 197.21L403.04 197.09L403.36 196.98L403.67 196.88L403.99 196.79L404.3 196.71L404.61 196.64L404.91 196.57L405.21 196.52L405.51 196.48L405.8 196.45L406.09 196.43L406.37 196.42L406.65 196.42L406.93 196.43L407.2 196.46L407.47 196.5L407.74 196.56L408 196.63L408.26 196.71L408.51 196.81L408.76 196.92L409 197.05L409.24 197.19L409.48 197.35L409.71 197.53L409.93 197.72L410.16 197.93L441.98 229.75L442.19 229.98L442.38 230.21L442.56 230.44L442.73 230.68L442.87 230.92L443.01 231.17L443.13 231.43L443.23 231.69L443.32 231.95L443.4 232.22L443.46 232.49L443.51 232.77L443.55 233.05L443.57 233.34L443.58 233.63L443.58 233.92L443.57 234.22L443.55 234.52L443.51 234.82L443.46 235.13L443.41 235.44L443.34 235.75L443.26 236.06L443.17 236.38L443.08 236.7L442.97 237.02L442.85 237.35L442.73 237.67L442.6 238L442.45 238.33L442.31 238.66L442.15 239L441.98 239.33L441.81 239.66L441.63 240L441.45 240.34L441.26 240.67L441.06 241.01L440.86 241.35L440.65 241.69L428.01 263.52L428.27 263.99L430.37 268.23L432.3 272.56L434.06 276.98L435.66 281.48L436.29 283.51L460.63 290L461.01 290.09L461.39 290.19L461.77 290.29L462.14 290.39L462.51 290.5L462.88 290.61L463.23 290.72L463.59 290.84L463.93 290.97L464.27 291.1L464.61 291.23L464.93 291.37L465.25 291.51L465.56 291.66L465.87 291.81L466.16 291.97L466.45 292.13L466.72 292.3L466.99 292.47L467.25 292.65L467.5 292.83L467.74 293.02L467.97 293.22L468.19 293.42L468.4 293.62L468.59 293.84L468.78 294.06L468.95 294.28L469.11 294.51L469.26 294.75L469.4 294.99L469.52 295.25L469.63 295.5L469.73 295.77L469.81 296.04L469.88 296.32L469.93 296.6L469.97 296.89L469.99 297.19L470 297.5L470 342.5L469.99 342.81L469.97 343.1L469.93 343.39L469.88 343.67L469.81 343.94L469.73 344.21L469.63 344.46L469.52 344.71L469.4 344.95L469.26 345.18L469.11 345.41L468.95 345.63L468.78 345.84L468.59 346.05L468.4 346.25L468.19 346.44L467.97 346.63L467.74 346.82L467.5 347L467.25 347.17L466.99 347.34L466.72 347.51L466.45 347.67L466.16 347.83L465.87 347.98L465.56 348.13L465.25 348.28L464.93 348.42L464.61 348.56L464.27 348.7L463.93 348.84L463.59 348.97L463.23 349.1L462.88 349.24L462.51 349.37L462.14 349.49L461.77 349.62L461.39 349.75L461.01 349.87L460.63 350L436.29 356.49L435.66 358.52L434.06 363.02L432.3 367.44L430.37 371.77L428.27 376.01L428.04 376.44L440.65 398.22L440.86 398.56L441.06 398.9L441.26 399.24L441.45 399.57L441.63 399.91L441.81 400.25L441.98 400.58L442.15 400.91L442.31 401.25L442.45 401.58L442.6 401.91L442.73 402.24L442.85 402.56L442.97 402.89L443.08 403.21L443.17 403.53L443.26 403.85L443.34 404.16L443.41 404.47L443.46 404.78L443.51 405.09L443.55 405.39L443.57 405.69L443.58 405.99L443.58 406.28L443.57 406.57L443.55 406.86L443.51 407.14L443.46 407.42L443.4 407.69L443.32 407.96L443.23 408.22L443.13 408.48L443.01 408.74L442.87 408.99L442.73 409.23L442.56 409.47L442.38 409.71L442.19 409.93L441.98 410.16L410.16 441.98L409.93 442.19L409.71 442.38L409.48 442.56L409.24 442.72L409 442.86L408.76 442.99L408.51 443.1L408.26 443.2L408 443.28L407.74 443.35L407.47 443.41L407.2 443.45L406.93 443.48L406.65 443.49L406.37 443.49L406.09 443.49L405.8 443.46L405.51 443.43L405.21 443.39L404.91 443.34L404.61 443.27L404.3 443.2L403.99 443.12L403.67 443.03L403.36 442.93L403.04 442.82L402.71 442.7L402.39 442.58L402.05 442.45L401.72 442.31L401.38 442.17L401.04 442.02L400.7 441.86L400.36 441.7L400.01 441.54L399.66 441.37L399.3 441.19L398.95 441.02L398.59 440.83L398.22 440.65L376.44 428.04L376.01 428.27L371.77 430.37L367.44 432.3L363.02 434.06L358.52 435.66L356.49 436.29L350 460.63L349.87 461.01L349.75 461.39L349.62 461.77L349.49 462.14L349.37 462.51L349.24 462.88L349.1 463.23L348.97 463.59L348.84 463.93L348.7 464.27L348.56 464.61L348.42 464.93L348.28 465.25L348.13 465.56L347.98 465.87L347.83 466.16L347.67 466.45L347.51 466.72L347.34 466.99L347.17 467.25L347 467.5L346.82 467.74L346.63 467.97L346.44 468.19L346.25 468.4L346.05 468.59L345.84 468.78L345.63 468.95L345.41 469.11L345.18 469.26L344.95 469.4L344.71 469.52L344.46 469.63L344.21 469.73L343.94 469.81L343.67 469.88L343.39 469.93L343.1 469.97L342.81 469.99L342.5 470L297.5 470L297.19 469.99L296.89 469.97L296.6 469.93L296.32 469.88L296.04 469.81L295.77 469.73L295.5 469.63L295.25 469.52L294.99 469.4L294.75 469.26L294.51 469.11L294.28 468.95L294.06 468.78L293.84 468.59L293.62 468.4L293.42 468.19L293.22 467.97L293.02 467.74L292.83 467.5L292.65 467.25L292.47 466.99L292.3 466.72L292.13 466.45L291.97 466.16L291.81 465.87L291.66 465.56L291.51 465.25L291.37 464.93L291.23 464.61L291.1 464.27L290.97 463.93L290.84 463.59L290.72 463.23L290.61 462.88L290.5 462.51L290.39 462.14L290.29 461.77L290.19 461.39L290.09 461.01L290 460.63L283.51 436.29L281.48 435.66L276.98 434.06L272.56 432.3L268.23 430.37L263.99 428.27L263.48 427.99L241.78 440.56L241.44 440.77L241.1 440.97L240.76 441.17L240.43 441.36L240.09 441.54L239.75 441.72L239.42 441.89L239.09 442.06L238.75 442.22L238.42 442.36L238.09 442.51L237.76 442.64L237.44 442.76L237.11 442.88L236.79 442.99L236.47 443.08L236.15 443.17L235.84 443.25L235.53 443.32L235.22 443.37L234.91 443.42L234.61 443.46L234.31 443.48L234.01 443.49L233.72 443.49L233.43 443.48L233.14 443.46L232.86 443.42L232.58 443.37L232.31 443.31L232.04 443.23L231.78 443.14L231.52 443.04L231.26 442.92L231.01 442.79L230.77 442.64L230.53 442.47L230.29 442.29L230.07 442.1L229.84 441.89L198.02 410.07L197.81 409.84L197.62 409.62L197.44 409.39L197.28 409.15L197.14 408.91L197.01 408.67L196.9 408.42L196.8 408.17L196.72 407.91L196.65 407.65L196.59 407.38L196.55 407.11L196.52 406.84L196.51 406.56L196.51 406.28L196.51 406L196.54 405.71L196.57 405.42L196.61 405.12L196.66 404.82L196.73 404.52L196.8 404.21L196.88 403.9L196.97 403.59L197.07 403.27L197.18 402.95L197.3 402.62L197.42 402.3L197.55 401.97L197.69 401.63L197.83 401.3L197.98 400.96L198.14 400.61L198.3 400.27L198.46 399.92L198.63 399.57L198.81 399.21L198.98 398.86L199.17 398.5L199.35 398.13L211.94 376.39L211.73 376.01L209.63 371.77L207.7 367.44L205.94 363.02L204.34 358.52L203.71 356.49L179.37 350L178.99 349.87L178.61 349.75L178.23 349.62L177.86 349.49L177.49 349.37L177.12 349.24L176.77 349.1L176.41 348.97L176.07 348.84L175.73 348.7L175.39 348.56L175.07 348.42L174.75 348.28L174.44 348.13L174.13 347.98L173.84 347.83L173.55 347.67L173.28 347.51L173.01 347.34L172.75 347.17L172.5 347L172.26 346.82L172.03 346.63L171.81 346.44L171.6 346.25L171.41 346.05L171.22 345.84L171.05 345.63L170.89 345.41L170.74 345.18L170.6 344.95L170.48 344.71L170.37 344.46L170.27 344.21L170.19 343.94L170.12 343.67L170.07 343.39L170.03 343.1L170.01 342.81L170 342.5L170 297.5L170.01 297.19L170.03 296.89L170.07 296.6L170.12 296.32L170.19 296.04L170.27 295.77L170.37 295.5L170.48 295.25L170.6 294.99L170.74 294.75L170.89 294.51L171.05 294.28L171.22 294.06L171.41 293.84L171.6 293.62L171.81 293.42L172.03 293.22L172.26 293.02L172.5 292.83L172.75 292.65L173.01 292.47L173.28 292.3L173.55 292.13L173.84 291.97L174.13 291.81L174.44 291.66L174.75 291.51L175.07 291.37L175.39 291.23L175.73 291.1L176.07 290.97L176.41 290.84L176.77 290.72L177.12 290.61L177.49 290.5L177.86 290.39L178.23 290.29L178.61 290.19L178.99 290.09L179.37 290L203.71 283.51L204.34 281.48L205.94 276.98L207.7 272.56L209.63 268.23L211.73 263.99L211.96 263.56L199.35 241.78L199.17 241.41L198.98 241.05L198.81 240.7L198.63 240.34L198.46 239.99L198.3 239.64L198.14 239.3L197.98 238.96L197.83 238.62L197.69 238.28L197.55 237.95L197.42 237.61L197.3 237.29L197.18 236.96L197.07 236.64L196.97 236.33L196.88 236.01L196.8 235.7L196.73 235.39L196.66 235.09L196.61 234.79L196.57 234.49L196.54 234.2L196.51 233.91L196.51 233.63L196.51 233.35L196.52 233.07L196.55 232.8L196.59 232.53L196.65 232.26L196.72 232L196.8 231.74L196.9 231.49L197.01 231.24L197.14 231L197.28 230.76L197.44 230.52L197.62 230.29L197.81 230.07L198.02 229.84L229.84 198.02L230.07 197.81L230.29 197.62L230.53 197.44L230.77 197.27L231.01 197.13L231.26 196.99L231.52 196.87L231.78 196.77L232.04 196.68L232.31 196.6L232.58 196.54L232.86 196.49L233.14 196.45L233.43 196.43L233.72 196.42L234.01 196.42L234.31 196.43L234.61 196.45L234.91 196.49L235.22 196.54L235.53 196.59L235.84 196.66L236.15 196.74L236.47 196.83L236.79 196.92L237.11 197.03L237.44 197.15L237.76 197.27L238.09 197.4L238.42 197.55L238.75 197.69L239.09 197.85L239.42 198.02L239.75 198.19L240.09 198.37L240.43 198.55L240.76 198.74L241.1 198.94L241.44 199.14L241.78 199.35L263.56 211.96L263.99 211.73L268.23 209.63L272.56 207.7L276.98 205.94L281.48 204.34L283.51 203.71L290 179.38L290.09 178.99L290.19 178.61L290.29 178.23L290.39 177.86L290.5 177.49L290.61 177.12L290.72 176.77L290.84 176.41L290.97 176.07L291.1 175.73L291.23 175.39L291.37 175.07L291.51 174.75L291.66 174.44L291.81 174.13L291.97 173.84L292.13 173.55L292.3 173.28L292.47 173.01L292.65 172.75L292.83 172.5L293.02 172.26L293.22 172.03L293.42 171.81L293.62 171.6L293.84 171.41L294.06 171.22L294.28 171.05L294.51 170.89L294.75 170.74L294.99 170.6L295.25 170.48L295.5 170.37L295.77 170.27L296.04 170.19L296.32 170.12L296.6 170.07L296.89 170.03L297.19 170.01L297.5 170L342.5 170L342.81 170.01L343.1 170.03ZM314.62 254.59L311.97 254.86L309.36 255.23L306.77 255.71L304.23 256.28L301.72 256.95L299.26 257.72L296.83 258.58L294.46 259.53L292.12 260.57L289.84 261.7L287.61 262.91L285.43 264.21L283.31 265.58L281.24 267.04L279.24 268.57L277.29 270.17L275.41 271.85L273.6 273.6L271.85 275.41L270.17 277.29L268.57 279.24L267.04 281.24L265.58 283.31L264.21 285.43L262.91 287.61L261.7 289.84L260.57 292.12L259.53 294.46L258.58 296.83L257.72 299.26L256.95 301.72L256.28 304.23L255.71 306.77L255.23 309.36L254.86 311.97L254.59 314.62L254.43 317.29L254.37 320L254.43 322.71L254.59 325.38L254.86 328.03L255.23 330.64L255.71 333.23L256.28 335.77L256.95 338.28L257.72 340.74L258.58 343.17L259.53 345.54L260.57 347.88L261.7 350.16L262.91 352.39L264.21 354.57L265.58 356.69L267.04 358.76L268.57 360.76L270.17 362.71L271.85 364.59L273.6 366.4L275.41 368.15L277.29 369.83L279.24 371.43L281.24 372.96L283.31 374.42L285.43 375.79L287.61 377.09L289.84 378.3L292.12 379.43L294.46 380.47L296.83 381.42L299.26 382.28L301.72 383.05L304.23 383.72L306.77 384.29L309.36 384.77L311.97 385.14L314.62 385.41L317.29 385.57L320 385.63L322.71 385.57L325.38 385.41L328.03 385.14L330.64 384.77L333.23 384.29L335.77 383.72L338.28 383.05L340.74 382.28L343.17 381.42L345.54 380.47L347.88 379.43L350.16 378.3L352.39 377.09L354.57 375.79L356.69 374.42L358.76 372.96L360.76 371.43L362.71 369.83L364.59 368.15L366.4 366.4L368.15 364.59L369.83 362.71L371.43 360.76L372.96 358.76L374.42 356.69L375.79 354.57L377.09 352.39L378.3 350.16L379.43 347.88L380.47 345.54L381.42 343.17L382.28 340.74L383.05 338.28L383.72 335.77L384.29 333.23L384.77 330.64L385.14 328.03L385.41 325.38L385.57 322.71L385.62 320L385.57 317.29L385.41 314.62L385.14 311.97L384.77 309.36L384.29 306.77L383.72 304.23L383.05 301.72L382.28 299.26L381.42 296.83L380.47 294.46L379.43 292.12L378.3 289.84L377.09 287.61L375.79 285.43L374.42 283.31L372.96 281.24L371.43 279.24L369.83 277.29L368.15 275.41L366.4 273.6L364.59 271.85L362.71 270.17L360.76 268.57L358.76 267.04L356.69 265.58L354.57 264.21L352.39 262.91L350.16 261.7L347.88 260.57L345.54 259.53L343.17 258.58L340.74 257.72L338.28 256.95L335.77 256.28L333.23 255.71L330.64 255.23L328.03 254.86L325.38 254.59L322.71 254.43L320 254.38L317.29 254.43L314.62 254.59Z" id="a1spqCDZ8q"></path><path d="M398.83 242.32L348.44 291.98L320 320" id="b1p1NwQ60H"></path><path d="M320 320L297.74 298.16L268.4 269.37" id="b1WMPy9z1a"></path></defs><g><g><g><use xlink:href="#aieSvxIm2" opacity="1" fill="#626262" fill-opacity="1"></use></g><g><use xlink:href="#bJ3eXJP2Q" opacity="1" fill="#ff0000" fill-opacity="1"></use><g><use xlink:href="#bJ3eXJP2Q" opacity="1" fill-opacity="0" stroke="#650a0a" stroke-width="2" stroke-opacity="1"></use></g></g><g><use xlink:href="#d47r0BgTq" opacity="1" fill="#626262" fill-opacity="1"></use><g><use xlink:href="#d47r0BgTq" opacity="1" fill-opacity="0" stroke="#626262" stroke-width="1" stroke-opacity="1"></use></g></g><g><use xlink:href="#d2gVL34cvd" opacity="1" fill="#000000" fill-opacity="1"></use></g><g><use xlink:href="#a1spqCDZ8q" opacity="1" fill="#6f6f6f" fill-opacity="1"></use></g><g><use xlink:href="#b1p1NwQ60H" opacity="1" fill="#000000" fill-opacity="1"></use><g><use xlink:href="#b1p1NwQ60H" opacity="1" fill-opacity="0" stroke="#000000" stroke-width="10" stroke-opacity="1"></use></g></g><g><g><filter id="shadow15607247" x="259.4" y="260.37" width="70.6" height="69.63" filterUnits="userSpaceOnUse" primitiveUnits="userSpaceOnUse"><feFlood></feFlood><feComposite in2="SourceAlpha" operator="in"></feComposite><feGaussianBlur stdDeviation="1"></feGaussianBlur><feOffset dx="1" dy="1" result="afterOffset"></feOffset><feFlood flood-color="#373636" flood-opacity="0.5"></feFlood><feComposite in2="afterOffset" operator="in"></feComposite><feMorphology operator="dilate" radius="1"></feMorphology><feComposite in2="SourceAlpha" operator="out"></feComposite></filter><path d="M320 320L297.74 298.16L268.4 269.37" id="b5NOsKNT3R" fill="none" stroke="white" filter="url(#shadow15607247)"></path></g><g><use xlink:href="#b1WMPy9z1a" opacity="1" fill-opacity="0" stroke="#000000" stroke-width="10" stroke-opacity="1"></use></g></g></g></g></svg>